<?xml version="1.0" encoding="UTF-8"?>
<svg version="1.1" xmlns="http://www.w3.org/2000/svg" width="376" height="115">
<path d="M0 0 C124.08 0 248.16 0 376 0 C376 37.95 376 75.9 376 115 C251.92 115 127.84 115 0 115 C0 77.05 0 39.1 0 0 Z " fill="#FDFDFE" transform="translate(0,0)"/>
<path d="M0 0 C0.88873306 -0.0038269 1.77746613 -0.00765381 2.69313049 -0.01159668 C4.56829972 -0.01431242 6.44350705 -0.00697487 8.31860352 0.00976562 C11.17876294 0.03115545 14.0364034 0.00996636 16.89648438 -0.015625 C18.72266176 -0.01298117 20.54883759 -0.00785504 22.375 0 C23.22517197 -0.00809692 24.07534393 -0.01619385 24.95127869 -0.02453613 C30.3300672 0.05978895 33.54982406 0.86040989 37.75390625 4.53125 C41.02674923 9.136797 40.08242072 15.05906356 40.06640625 20.46875 C40.08251953 21.55349609 40.09863281 22.63824219 40.11523438 23.75585938 C40.11587891 24.80451172 40.11652344 25.85316406 40.1171875 26.93359375 C40.12016846 27.88741943 40.12314941 28.84124512 40.1262207 29.82397461 C39.5702308 33.86684154 37.83619533 36.3219534 35.15405273 39.31884766 C31.33822019 41.24636514 27.56634827 40.95869477 23.3515625 40.9296875 C22.43684677 40.93255768 21.52213104 40.93542786 20.57969666 40.93838501 C18.6472817 40.9404243 16.71484604 40.93490387 14.7824707 40.92236328 C11.83041999 40.90632613 8.8797422 40.922207 5.92773438 40.94140625 C4.04817407 40.93942343 2.16861462 40.93557896 0.2890625 40.9296875 C-1.03145363 40.93879654 -1.03145363 40.93879654 -2.37864685 40.9480896 C-7.16498567 40.8933979 -10.35174761 40.62286184 -14.24609375 37.53125 C-18.35241763 32.93180862 -17.69002529 27.4184651 -17.62109375 21.59375 C-17.63269531 20.61728516 -17.64429688 19.64082031 -17.65625 18.63476562 C-17.6291143 11.96390686 -16.99206413 7.4024717 -12.2121582 2.40454102 C-8.09738431 -0.19424572 -4.77380102 -0.04535705 0 0 Z " fill="#3C6DF4" transform="translate(268.24609375,7.46875)"/>
<path d="M0 0 C1.04085251 0.00007553 2.08170502 0.00015106 3.15409851 0.00022888 C4.27605118 0.00539017 5.39800385 0.01055145 6.55395508 0.01586914 C7.70390457 0.01728409 8.85385406 0.01869904 10.03865051 0.02015686 C13.71695541 0.02576111 17.39519978 0.03831435 21.07348633 0.05102539 C23.56502191 0.05603984 26.05655844 0.06060284 28.5480957 0.06469727 C34.66074929 0.07573192 40.77335754 0.09299944 46.88598633 0.11352539 C46.88598633 3.41352539 46.88598633 6.71352539 46.88598633 10.11352539 C31.04598633 10.11352539 15.20598633 10.11352539 -1.11401367 10.11352539 C-1.11401367 11.76352539 -1.11401367 13.41352539 -1.11401367 15.11352539 C0.15716309 15.09257812 1.42833984 15.07163086 2.73803711 15.05004883 C7.46790236 14.97748283 12.19771868 14.93166514 16.92797852 14.89379883 C18.97265913 14.87372119 21.0172826 14.84645314 23.06176758 14.81176758 C26.00592169 14.7630802 28.94931467 14.74051795 31.89379883 14.72290039 C32.80340363 14.70225525 33.71300842 14.68161011 34.650177 14.66033936 C40.37969207 14.65832756 43.50049282 15.34309713 47.88598633 19.11352539 C50.34606791 23.13911344 50.43666206 27.5095152 49.88598633 32.11352539 C48.88598633 35.42602539 48.88598633 35.42602539 46.88598633 38.11352539 C40.31579177 41.29549247 34.60441882 41.51495263 27.38598633 41.40649414 C26.30969971 41.4022493 25.23341309 41.39800446 24.12451172 41.39363098 C20.71140763 41.37693564 17.29890978 41.33929982 13.88598633 41.30102539 C11.56177615 41.28596676 9.23755665 41.27228043 6.91333008 41.26000977 C1.23731782 41.22706198 -4.43824539 41.17534257 -10.11401367 41.11352539 C-10.11401367 37.48352539 -10.11401367 33.85352539 -10.11401367 30.11352539 C5.72598633 29.78352539 21.56598633 29.45352539 37.88598633 29.11352539 C38.21598633 27.79352539 38.54598633 26.47352539 38.88598633 25.11352539 C38.05699577 25.12684906 38.05699577 25.12684906 37.21125793 25.14044189 C31.45246741 25.22902445 25.69387082 25.2893046 19.93457031 25.33325195 C17.78605283 25.35335125 15.63758993 25.38063532 13.48925781 25.4152832 C10.39870727 25.46387452 7.30888078 25.48651118 4.21801758 25.50415039 C2.78024712 25.5351181 2.78024712 25.5351181 1.31343079 25.56671143 C-3.02578485 25.56816717 -5.43384143 25.53254036 -9.19726562 23.21411133 C-12.48435178 19.61175631 -12.3313893 17.05482255 -12.42651367 12.23852539 C-12.46389648 11.00360352 -12.5012793 9.76868164 -12.53979492 8.49633789 C-12.11401367 5.11352539 -12.11401367 5.11352539 -10.28198242 2.73071289 C-6.86494152 0.18178509 -4.13285585 -0.01000691 0 0 Z " fill="#BA1AF4" transform="translate(19.114013671875,7.886474609375)"/>
<path d="M0 0 C7.33251292 -0.04589194 14.66452825 -0.08572402 21.99707031 -0.10986328 C24.49187915 -0.11992561 26.98667618 -0.13357679 29.48144531 -0.15087891 C33.06578484 -0.17511668 36.64996853 -0.18648082 40.234375 -0.1953125 C41.35116638 -0.20563507 42.46795776 -0.21595764 43.61859131 -0.22659302 C44.65936829 -0.22674408 45.70014526 -0.22689514 46.77246094 -0.22705078 C47.68735291 -0.231492 48.60224487 -0.23593323 49.54486084 -0.24050903 C52.17647521 0.01728777 53.78120631 0.58008595 56 2 C57.41164959 4.82329919 57.13206965 7.2290079 57.125 10.375 C57.12886719 12.08816406 57.12886719 12.08816406 57.1328125 13.8359375 C57 17 57 17 56.3671875 19.0390625 C55.81452508 21.99051501 57.02716241 24.19188016 58 27 C58.27580863 29.28452807 58.4843786 31.57818383 58.625 33.875 C58.69976562 35.02742188 58.77453125 36.17984375 58.8515625 37.3671875 C58.90054688 38.23601563 58.94953125 39.10484375 59 40 C55.37 40 51.74 40 48 40 C47.505 32.575 47.505 32.575 47 25 C35.12 25 23.24 25 11 25 C11 29.95 11 34.9 11 40 C7.37 40 3.74 40 0 40 C0 26.8 0 13.6 0 0 Z " fill="#9A2EF7" transform="translate(71,8)"/>
<path d="M0 0 C3.3 0 6.6 0 10 0 C10 4.29 10 8.58 10 13 C21.88 13 33.76 13 46 13 C46 8.71 46 4.42 46 0 C49.63 0 53.26 0 57 0 C57.12433553 4.42902299 57.21467969 8.85710066 57.2746582 13.28735352 C57.29968061 14.79176548 57.33371033 16.29605735 57.37719727 17.80004883 C57.7746355 31.90676838 57.7746355 31.90676838 54.66796875 36.46484375 C50.37078498 40.54811208 46.44424711 40.13517865 40.83203125 40.09765625 C40.03721848 40.0962413 39.2424057 40.09482635 38.42350769 40.09336853 C35.88646675 40.08777378 33.34951425 40.07522228 30.8125 40.0625 C29.09179815 40.05748432 27.37109492 40.05292153 25.65039062 40.04882812 C21.4335597 40.03780607 17.21679484 40.02054506 13 40 C13 36.7 13 33.4 13 30 C23.56 29.67 34.12 29.34 45 29 C45.33 27.35 45.66 25.7 46 24 C44.91058105 24.01571045 43.82116211 24.0314209 42.69873047 24.04760742 C38.63972425 24.10208978 34.5807501 24.13641639 30.52148438 24.16479492 C28.76784827 24.17983995 27.01424953 24.20028104 25.26074219 24.22631836 C22.73362991 24.26289121 20.20701704 24.2797692 17.6796875 24.29296875 C16.51214432 24.31619453 16.51214432 24.31619453 15.3210144 24.33988953 C10.4710945 24.34137397 7.21820325 23.65023032 3 21 C-0.50731949 16.91915657 -0.36672205 12.82979433 -0.1875 7.6875 C-0.17396484 6.94693359 -0.16042969 6.20636719 -0.14648438 5.44335938 C-0.11135979 3.62858925 -0.05755972 1.81419712 0 0 Z " fill="#1583FA" transform="translate(311,8)"/>
<path d="M0 0 C5.46397647 3.08628066 9.53168583 7.33268167 13.875 11.8125 C18.54142411 16.60030508 23.25768267 21.2133257 28.34033203 25.5612793 C29.60516357 26.65772711 30.81636225 27.81636225 32 29 C32.33 19.76 32.66 10.52 33 1 C36.3 1 39.6 1 43 1 C43.12408851 5.73216293 43.21456516 10.46336832 43.2746582 15.19677734 C43.29972128 16.80501818 43.33378171 18.41314602 43.37719727 20.02099609 C43.43821848 22.33980239 43.46628963 24.65709665 43.48828125 26.9765625 C43.51408768 27.68930328 43.5398941 28.40204407 43.56648254 29.13638306 C43.56864631 33.03388088 43.00968761 35.45609246 40.59448242 38.43896484 C37.89351387 41.10511335 37.01882403 41.83019599 33.375 42.4375 C24.5164916 41.28917484 17.89724146 32.07040679 12 26 C8.35176476 22.28420485 4.57062525 18.88235118 0.57421875 15.55078125 C0.05472656 15.03902344 -0.46476563 14.52726562 -1 14 C-1 13.34 -1 12.68 -1 12 C-1.66 12 -2.32 12 -3 12 C-3 21.57 -3 31.14 -3 41 C-6.3 41 -9.6 41 -13 41 C-13.1238948 36.10710835 -13.21447509 31.21513573 -13.2746582 26.32104492 C-13.29975347 24.65747161 -13.33383796 22.99400804 -13.37719727 21.33081055 C-13.4380746 18.93510847 -13.46625769 16.54086749 -13.48828125 14.14453125 C-13.51408768 13.4047554 -13.5398941 12.66497955 -13.56648254 11.90278625 C-13.56864778 7.88741955 -13.16802009 6.20580884 -10.59448242 3.0534668 C-6.81756634 0.06413385 -4.826758 -0.46411135 0 0 Z " fill="#7944F7" transform="translate(159,7)"/>
<path d="M0 0 C4.96628434 -0.02290956 9.93238663 -0.04283643 14.89868164 -0.05493164 C16.58944316 -0.0599719 18.28020029 -0.06680405 19.97094727 -0.07543945 C22.39600707 -0.08751857 24.82100944 -0.09323123 27.24609375 -0.09765625 C28.38672523 -0.10539818 28.38672523 -0.10539818 29.55039978 -0.11329651 C31.3673257 -0.11349238 33.18413127 -0.06197277 35 0 C36.5220959 1.5220959 36.12959521 2.88210082 36.1328125 5 C36.13474609 6.2065625 36.13474609 6.2065625 36.13671875 7.4375 C36.13285156 8.283125 36.12898438 9.12875 36.125 10 C36.13080078 11.2684375 36.13080078 11.2684375 36.13671875 12.5625 C36.13542969 13.366875 36.13414062 14.17125 36.1328125 15 C36.13168457 15.7425 36.13055664 16.485 36.12939453 17.25 C36 19 36 19 35 20 C32.40640678 20.08851529 29.83960309 20.11525945 27.24609375 20.09765625 C26.47064713 20.0962413 25.6952005 20.09482635 24.89625549 20.09336853 C22.40996506 20.08775345 19.9237634 20.07519846 17.4375 20.0625 C15.75586067 20.05748694 14.07421994 20.0529237 12.39257812 20.04882812 C8.26165671 20.03862832 4.13092818 20.01905605 0 20 C0 13.4 0 6.8 0 0 Z " fill="#F3F8FE" transform="translate(262,18)"/>
<path d="M0 0 C3.3 0 6.6 0 10 0 C10.1241194 4.58974462 10.21457876 9.17850086 10.2746582 13.76953125 C10.29971627 15.32927479 10.33377301 16.8889019 10.37719727 18.44824219 C10.43824193 20.69755843 10.46629426 22.9453156 10.48828125 25.1953125 C10.51408768 25.8861795 10.5398941 26.57704651 10.56648254 27.28884888 C10.56868247 31.13483987 9.97332848 33.48776239 7.59448242 36.42529297 C3.94674284 40.04522913 2.20260654 40.11381361 -2.86782837 40.11329651 C-3.66683563 40.10813522 -4.4658429 40.10297394 -5.2890625 40.09765625 C-6.51669815 40.09553383 -6.51669815 40.09553383 -7.76913452 40.09336853 C-10.38779325 40.0877629 -13.00636704 40.07520948 -15.625 40.0625 C-17.39843627 40.05748572 -19.17187387 40.05292269 -20.9453125 40.04882812 C-25.29690782 40.03779164 -29.6484395 40.02052325 -34 40 C-34 36.7 -34 33.4 -34 30 C-23.11 29.67 -12.22 29.34 -1 29 C-0.67 19.43 -0.34 9.86 0 0 Z " fill="#565BF8" transform="translate(239,8)"/>
<path d="M0 0 C3.3 0 6.6 0 10 0 C10 4.29 10 8.58 10 13 C21.55 13 33.1 13 45 13 C45 13.66 45 14.32 45 15 C33.45 15 21.9 15 10 15 C10 16.32 10 17.64 10 19 C11.32 19 12.64 19 14 19 C14 19.66 14 20.32 14 21 C15.01199463 20.98428955 15.01199463 20.98428955 16.04443359 20.96826172 C19.15458321 20.92622548 22.26467274 20.90052437 25.375 20.875 C26.96634766 20.84986328 26.96634766 20.84986328 28.58984375 20.82421875 C35.31269261 20.78297428 41.47111548 21.37829164 48 23 C48.1875 26.375 48.1875 26.375 48 30 C44.46435537 32.35709642 42.77974745 32.30009735 38.58203125 32.4140625 C36.70161133 32.47207031 36.70161133 32.47207031 34.78320312 32.53125 C33.47287109 32.5621875 32.16253906 32.593125 30.8125 32.625 C29.4771884 32.66319338 28.14190108 32.70224591 26.80664062 32.7421875 C23.53790112 32.83659153 20.26916936 32.92217017 17 33 C16.67 34.98 16.34 36.96 16 39 C19.95884039 38.88870003 23.91684826 38.75842085 27.875 38.625 C28.98359375 38.5940625 30.0921875 38.563125 31.234375 38.53125 C42.72241011 38.73301629 42.72241011 38.73301629 52.7409668 34.37255859 C54.46781894 31.11842845 54.43641588 28.50290503 54.51171875 24.828125 C54.52966995 24.1457074 54.54762115 23.46328979 54.56611633 22.76019287 C54.62010383 20.5901906 54.65407583 18.42040675 54.6875 16.25 C54.72068352 14.77470926 54.75517415 13.29944731 54.79101562 11.82421875 C54.87582158 8.21635573 54.94268837 4.60841638 55 1 C52.69 1 50.38 1 48 1 C48 4.63 48 8.26 48 12 C47.34 12 46.68 12 46 12 C46 8.04 46 4.08 46 0 C49.63 0 53.26 0 57 0 C57.12433553 4.42902299 57.21467969 8.85710066 57.2746582 13.28735352 C57.29968061 14.79176548 57.33371033 16.29605735 57.37719727 17.80004883 C57.7746355 31.90676838 57.7746355 31.90676838 54.66796875 36.46484375 C50.37078498 40.54811208 46.44424711 40.13517865 40.83203125 40.09765625 C40.03721848 40.0962413 39.2424057 40.09482635 38.42350769 40.09336853 C35.88646675 40.08777378 33.34951425 40.07522228 30.8125 40.0625 C29.09179815 40.05748432 27.37109492 40.05292153 25.65039062 40.04882812 C21.4335597 40.03780607 17.21679484 40.02054506 13 40 C13 36.7 13 33.4 13 30 C23.56 29.67 34.12 29.34 45 29 C45.33 27.35 45.66 25.7 46 24 C44.91058105 24.01571045 43.82116211 24.0314209 42.69873047 24.04760742 C38.63972425 24.10208978 34.5807501 24.13641639 30.52148438 24.16479492 C28.76784827 24.17983995 27.01424953 24.20028104 25.26074219 24.22631836 C22.73362991 24.26289121 20.20701704 24.2797692 17.6796875 24.29296875 C16.51214432 24.31619453 16.51214432 24.31619453 15.3210144 24.33988953 C10.4710945 24.34137397 7.21820325 23.65023032 3 21 C-0.50731949 16.91915657 -0.36672205 12.82979433 -0.1875 7.6875 C-0.17396484 6.94693359 -0.16042969 6.20636719 -0.14648438 5.44335938 C-0.11135979 3.62858925 -0.05755972 1.81419712 0 0 Z " fill="#2C7DE6" transform="translate(311,8)"/>
<path d="M0 0 C3.3 0 6.6 0 10 0 C10.12408851 4.73216293 10.21456516 9.46336832 10.2746582 14.19677734 C10.29972128 15.80501818 10.33378171 17.41314602 10.37719727 19.02099609 C10.43821848 21.33980239 10.46628963 23.65709665 10.48828125 25.9765625 C10.51408768 26.68930328 10.5398941 27.40204407 10.56648254 28.13638306 C10.56864631 32.03388088 10.00968761 34.45609246 7.59448242 37.43896484 C4.89351387 40.10511335 4.01882403 40.83019599 0.375 41.4375 C-5.65250017 40.65615739 -9.61750882 36.58986486 -13.5 32.125 C-13.995 31.42375 -14.49 30.7225 -15 30 C-13.02 30.66 -11.04 31.32 -9 32 C-9.66 30.68 -10.32 29.36 -11 28 C-9 25 -9 25 -7.125 24.0625 C-6.42375 24.041875 -5.7225 24.02125 -5 24 C-3.68 25.32 -2.36 26.64 -1 28 C-0.67 18.76 -0.34 9.52 0 0 Z " fill="#6B53E4" transform="translate(192,8)"/>
<path d="M0 0 C3.63 0 7.26 0 11 0 C11 13.2 11 26.4 11 40 C7.37 40 3.74 40 0 40 C0 26.8 0 13.6 0 0 Z " fill="#833FE9" transform="translate(132,8)"/>
<path d="M0 0 C1.32 0 2.64 0 4 0 C4.62619962 9.1146833 4.62619962 9.1146833 2.1875 12.5625 C-1.24032349 14.81506972 -3.93025447 15.12360137 -7.93041992 15.11352539 C-8.93123093 15.11344986 -9.93204193 15.11337433 -10.96318054 15.11329651 C-12.04138565 15.10813522 -13.11959076 15.10297394 -14.23046875 15.09765625 C-15.33602615 15.0962413 -16.44158356 15.09482635 -17.5806427 15.09336853 C-21.11628917 15.08776514 -24.65187262 15.07521204 -28.1875 15.0625 C-30.58268138 15.05748544 -32.97786375 15.05292246 -35.37304688 15.04882812 C-41.24871947 15.03779461 -47.12435523 15.02105316 -53 15 C-53 12.69 -53 10.38 -53 8 C-52.05159492 7.9845388 -52.05159492 7.9845388 -51.08403015 7.96876526 C-44.51432876 7.86073996 -37.94476562 7.74613861 -31.37524414 7.62768555 C-28.92214851 7.58432398 -26.46902247 7.54264981 -24.01586914 7.50268555 C-20.49355899 7.44501279 -16.97140216 7.38130948 -13.44921875 7.31640625 C-11.79910042 7.29133751 -11.79910042 7.29133751 -10.11564636 7.26576233 C-9.09481461 7.24581711 -8.07398285 7.22587189 -7.0222168 7.20532227 C-6.12286911 7.18977798 -5.22352142 7.1742337 -4.29692078 7.15821838 C-1.83823531 7.08512661 -1.83823531 7.08512661 1 6 C0.505 3.03 0.505 3.03 0 0 Z " fill="#BE17F5" transform="translate(63,32)"/>
<path d="M0 0 C7.33251292 -0.04589194 14.66452825 -0.08572402 21.99707031 -0.10986328 C24.49187915 -0.11992561 26.98667618 -0.13357679 29.48144531 -0.15087891 C33.06578484 -0.17511668 36.64996853 -0.18648082 40.234375 -0.1953125 C41.35116638 -0.20563507 42.46795776 -0.21595764 43.61859131 -0.22659302 C44.65936829 -0.22674408 45.70014526 -0.22689514 46.77246094 -0.22705078 C47.68735291 -0.231492 48.60224487 -0.23593323 49.54486084 -0.24050903 C52.17647521 0.01728777 53.78120631 0.58008595 56 2 C57.41164959 4.82329919 57.13206965 7.2290079 57.125 10.375 C57.12886719 12.08816406 57.12886719 12.08816406 57.1328125 13.8359375 C57 17 57 17 56.3671875 19.0390625 C55.81452508 21.99051501 57.02716241 24.19188016 58 27 C58.27580863 29.28452807 58.4843786 31.57818383 58.625 33.875 C58.69976562 35.02742188 58.77453125 36.17984375 58.8515625 37.3671875 C58.90054688 38.23601563 58.94953125 39.10484375 59 40 C55.37 40 51.74 40 48 40 C47.505 32.575 47.505 32.575 47 25 C35.12 25 23.24 25 11 25 C11 29.95 11 34.9 11 40 C7.37 40 3.74 40 0 40 C0 26.8 0 13.6 0 0 Z M2 1 C2 13.54 2 26.08 2 39 C4.64 39 7.28 39 10 39 C10 33.72 10 28.44 10 23 C28.315 23.495 28.315 23.495 47 24 C48.41634833 26.83269666 48.3463005 29.47466438 48.5625 32.625 C48.64628906 33.81351563 48.73007813 35.00203125 48.81640625 36.2265625 C48.87699219 37.14179687 48.93757813 38.05703125 49 39 C51.64 39 54.28 39 57 39 C57.09688221 33.55306686 57.12862175 28.36095333 56 23 C55.34 23 54.68 23 54 23 C54.165 22.2575 54.33 21.515 54.5 20.75 C54.94318597 17.42610521 55.20197319 14.22355308 55.3125 10.875 C55.34988281 9.86179687 55.38726562 8.84859375 55.42578125 7.8046875 C55.18567765 4.98504227 55.18567765 4.98504227 53.66772461 2.84912109 C49.3773233 -0.12475092 44.9815655 0.50938814 39.890625 0.609375 C38.80867859 0.61503479 37.72673218 0.62069458 36.61199951 0.62652588 C33.15754893 0.64891001 29.70413689 0.69911209 26.25 0.75 C23.90756707 0.77006228 21.56511787 0.78831352 19.22265625 0.8046875 C13.4810492 0.84537926 7.74168651 0.92367034 2 1 Z " fill="#9147CF" transform="translate(71,8)"/>
<path d="M0 0 C3.63 0 7.26 0 11 0 C11.12433553 4.42902299 11.21467969 8.85710066 11.2746582 13.28735352 C11.29968061 14.79176548 11.33371033 16.29605735 11.37719727 17.80004883 C11.7746355 31.90676838 11.7746355 31.90676838 8.66796875 36.46484375 C4.37078498 40.54811208 0.44424711 40.13517865 -5.16796875 40.09765625 C-5.96278152 40.0962413 -6.7575943 40.09482635 -7.57649231 40.09336853 C-10.11353325 40.08777378 -12.65048575 40.07522228 -15.1875 40.0625 C-16.90820185 40.05748432 -18.62890508 40.05292153 -20.34960938 40.04882812 C-24.5664403 40.03780607 -28.78320516 40.02054506 -33 40 C-33 36.7 -33 33.4 -33 30 C-22.44 29.67 -11.88 29.34 -1 29 C-0.67 27.35 -0.34 25.7 0 24 C-1.08941895 24.01571045 -2.17883789 24.0314209 -3.30126953 24.04760742 C-7.36027575 24.10208978 -11.4192499 24.13641639 -15.47851562 24.16479492 C-17.23215173 24.17983995 -18.98575047 24.20028104 -20.73925781 24.22631836 C-23.26637009 24.26289121 -25.79298296 24.2797692 -28.3203125 24.29296875 C-29.48785568 24.31619453 -29.48785568 24.31619453 -30.6789856 24.33988953 C-35.5414689 24.34137782 -38.72764214 23.57589309 -43 21 C-42.34 20.67 -41.68 20.34 -41 20 C-40.31526611 20.30083496 -39.63053223 20.60166992 -38.92504883 20.91162109 C-34.98186037 22.3788387 -31.37483872 22.35417471 -27.19921875 22.4140625 C-26.36284378 22.43342865 -25.52646881 22.4527948 -24.66474915 22.4727478 C-22.0057683 22.53230192 -19.3467436 22.57883174 -16.6875 22.625 C-14.87953891 22.66320206 -13.07159558 22.70225509 -11.26367188 22.7421875 C-6.84259302 22.83798345 -2.42142899 22.92210331 2 23 C2.1875 26.375 2.1875 26.375 2 30 C-1.53564463 32.35709642 -3.22025255 32.30009735 -7.41796875 32.4140625 C-9.29838867 32.47207031 -9.29838867 32.47207031 -11.21679688 32.53125 C-12.52712891 32.5621875 -13.83746094 32.593125 -15.1875 32.625 C-16.5228116 32.66319338 -17.85809892 32.70224591 -19.19335938 32.7421875 C-22.46209888 32.83659153 -25.73083064 32.92217017 -29 33 C-29.33 34.98 -29.66 36.96 -30 39 C-26.04115961 38.88870003 -22.08315174 38.75842085 -18.125 38.625 C-17.01640625 38.5940625 -15.9078125 38.563125 -14.765625 38.53125 C-3.27758989 38.73301629 -3.27758989 38.73301629 6.7409668 34.37255859 C8.46781894 31.11842845 8.43641588 28.50290503 8.51171875 24.828125 C8.52966995 24.1457074 8.54762115 23.46328979 8.56611633 22.76019287 C8.62010383 20.5901906 8.65407583 18.42040675 8.6875 16.25 C8.72068352 14.77470926 8.75517415 13.29944731 8.79101562 11.82421875 C8.87582158 8.21635573 8.94268837 4.60841638 9 1 C6.69 1 4.38 1 2 1 C2 4.63 2 8.26 2 12 C1.34 12 0.68 12 0 12 C0 8.04 0 4.08 0 0 Z " fill="#3B88D6" transform="translate(357,8)"/>
<path d="M0 0 C6.01394883 -0.0991017 12.02741915 -0.17157916 18.04199219 -0.21972656 C20.0866728 -0.2398042 22.13129627 -0.26707225 24.17578125 -0.30175781 C27.11993537 -0.35044519 30.06332834 -0.37300744 33.0078125 -0.390625 C33.9174173 -0.41127014 34.82702209 -0.43191528 35.76419067 -0.45318604 C41.49370574 -0.45519783 44.61450649 0.22957174 49 4 C51.46008159 8.02558805 51.55067573 12.39598981 51 17 C50 20.3125 50 20.3125 48 23 C41.42980544 26.18196707 35.71843249 26.40142724 28.5 26.29296875 C27.42371338 26.28872391 26.34742676 26.28447906 25.23852539 26.28010559 C21.8254213 26.26341025 18.41292345 26.22577443 15 26.1875 C12.67578982 26.17244137 10.35157032 26.15875503 8.02734375 26.14648438 C2.35133149 26.11353659 -3.32423172 26.06181718 -9 26 C-9 22.37 -9 18.74 -9 15 C6.84 15 22.68 15 39 15 C39 15.33 39 15.66 39 16 C23.82 16.33 8.64 16.66 -7 17 C-7.33 19.31 -7.66 21.62 -8 24 C-0.97044118 23.9329806 6.05856233 23.84316594 13.08764648 23.73754883 C15.47852983 23.70430833 17.86949148 23.67627371 20.26049805 23.65356445 C23.69874419 23.62000317 27.13627329 23.56768476 30.57421875 23.51171875 C32.17604256 23.50213387 32.17604256 23.50213387 33.81022644 23.49235535 C39.52018638 23.37940603 43.74919202 23.25080798 48 19 C48.07271741 16.64686445 48.08370868 14.29166332 48.0625 11.9375 C48.05347656 10.64714844 48.04445312 9.35679688 48.03515625 8.02734375 C48.02355469 7.02832031 48.01195312 6.02929688 48 5 C45.05083694 3.31873519 42.89107005 2.73950121 39.50683594 2.68115234 C38.62622498 2.66128265 37.74561401 2.64141296 36.83831787 2.62094116 C35.89651672 2.60938995 34.95471558 2.59783875 33.984375 2.5859375 C33.01340881 2.56657135 32.04244263 2.5472052 31.04205322 2.5272522 C27.94479114 2.46753491 24.84749174 2.4211022 21.75 2.375 C19.64842141 2.33681302 17.54685835 2.29776086 15.4453125 2.2578125 C10.29700132 2.16183969 5.14861688 2.0777794 0 2 C0 1.34 0 0.68 0 0 Z " fill="#B754D3" transform="translate(18,23)"/>
<path d="M0 0 C15.84 0 31.68 0 48 0 C47.67 2.31 47.34 4.62 47 7 C46.4307782 6.83923477 45.8615564 6.67846954 45.27508545 6.51283264 C42.98405052 5.99640479 40.94362755 5.84295704 38.59863281 5.79467773 C37.7380426 5.77473251 36.87745239 5.75478729 35.99078369 5.73423767 C34.61089264 5.70916893 34.61089264 5.70916893 33.203125 5.68359375 C32.25435486 5.66281265 31.30558472 5.64203156 30.32806396 5.62062073 C27.30211518 5.55532066 24.2760808 5.49633112 21.25 5.4375 C19.19660579 5.3942962 17.14322018 5.35068131 15.08984375 5.30664062 C10.0599832 5.19965927 5.03003668 5.09833677 0 5 C0 3.35 0 1.7 0 0 Z " fill="#FBE4FE" transform="translate(18,18)"/>
<path d="M0 0 C0.61190186 0.4844458 1.22380371 0.9688916 1.85424805 1.46801758 C6.33820026 3.65170405 10.4041061 3.47886678 15.33203125 3.51171875 C16.32377853 3.52966995 17.31552582 3.54762115 18.33732605 3.56611633 C21.49567451 3.62016968 24.65387225 3.65409952 27.8125 3.6875 C29.95770324 3.72067742 32.10288661 3.75516747 34.24804688 3.79101562 C39.49856276 3.87589312 44.74909826 3.94426404 50 4 C49.67 5.65 49.34 7.3 49 9 C33.16 9 17.32 9 1 9 C1 8.67 1 8.34 1 8 C2.98 8 4.96 8 7 8 C7 7.01 7 6.02 7 5 C4.03 4.505 4.03 4.505 1 4 C0.67 2.68 0.34 1.36 0 0 Z " fill="#FEFBFE" transform="translate(8,29)"/>
<path d="M0 0 C1.58246707 -0.08153933 3.16616273 -0.13943557 4.75 -0.1875 C6.07257812 -0.23970703 6.07257812 -0.23970703 7.421875 -0.29296875 C10.48614639 0.05524391 11.77917519 0.90031109 14 3 C14.75 5.1875 14.75 5.1875 15 7 C13.68 7 12.36 7 11 7 C11.495 9.97 11.495 9.97 12 13 C8.5253803 14.5646893 5.83063503 15.24712736 2.02612305 15.22705078 C0.58519539 15.22682419 0.58519539 15.22682419 -0.88484192 15.22659302 C-1.9089769 15.21627045 -2.93311188 15.20594788 -3.98828125 15.1953125 C-5.04661667 15.1924826 -6.10495209 15.18965271 -7.19535828 15.18673706 C-10.56785498 15.1755629 -13.94008387 15.15046307 -17.3125 15.125 C-19.6022097 15.11496664 -21.89192357 15.10584141 -24.18164062 15.09765625 C-29.78785143 15.0756326 -35.39390658 15.04218236 -41 15 C-41 14.67 -41 14.34 -41 14 C-25.82 14 -10.64 14 5 14 C5.33 12.02 5.66 10.04 6 8 C5.17100945 8.01332367 5.17100945 8.01332367 4.32527161 8.0269165 C-1.43351892 8.11549906 -7.19211551 8.17577921 -12.95141602 8.21972656 C-15.0999335 8.23982586 -17.2483964 8.26710993 -19.39672852 8.30175781 C-22.48727905 8.35034913 -25.57710555 8.37298579 -28.66796875 8.390625 C-30.10573921 8.42159271 -30.10573921 8.42159271 -31.57255554 8.45318604 C-36.01731791 8.45467719 -38.32663046 8.43333956 -42.14575195 5.97558594 C-42.75765381 5.32364258 -43.36955566 4.67169922 -44 4 C-43.67 3.34 -43.34 2.68 -43 2 C-42.38358643 2.65194336 -41.76717285 3.30388672 -41.13208008 3.97558594 C-36.69801626 6.84153474 -33.05475336 6.50453731 -27.88671875 6.390625 C-26.43239189 6.38213531 -26.43239189 6.38213531 -24.94868469 6.37347412 C-21.86111454 6.35113706 -18.77471761 6.30094498 -15.6875 6.25 C-13.59051159 6.22993158 -11.49350493 6.21168141 -9.39648438 6.1953125 C-4.26387293 6.15128087 0.86786482 6.08227111 6 6 C4.48052501 2.63251488 3.47899158 1.39159663 0 0 Z " fill="#AE26E5" transform="translate(52,25)"/>
<path d="M0 0 C1.98 0 3.96 0 6 0 C6.04969106 4.16258147 6.08585642 8.32500261 6.10986328 12.48779297 C6.11987856 13.90188609 6.13349474 15.31595873 6.15087891 16.72998047 C6.17532559 18.77055946 6.18652784 20.81086303 6.1953125 22.8515625 C6.20578613 24.07697754 6.21625977 25.30239258 6.22705078 26.56494141 C5.99746626 30.03833297 5.2511457 32.76606976 4 36 C1.1875 36.6875 1.1875 36.6875 -2 37 C-3.875 35.5625 -3.875 35.5625 -5 34 C-4.34 34 -3.68 34 -3 34 C-3 33.34 -3 32.68 -3 32 C-2.34 31.67 -1.68 31.34 -1 31 C-1 30.01 -1 29.02 -1 28 C-0.93252935 25.8604984 -0.8586858 23.72119536 -0.78125 21.58203125 C-0.73613281 20.32841797 -0.69101563 19.07480469 -0.64453125 17.78320312 C-0.57298828 15.81770508 -0.57298828 15.81770508 -0.5 13.8125 C-0.45177374 12.47721532 -0.40359609 11.14192888 -0.35546875 9.80664062 C-0.237458 6.5377428 -0.1189483 3.26886382 0 0 Z " fill="#664FF9" transform="translate(194,10)"/>
<path d="M0 0 C1.3366571 -0.00218285 1.3366571 -0.00218285 2.70031738 -0.00440979 C4.57970457 -0.00275373 6.45910572 0.00877468 8.33837891 0.02954102 C11.20924698 0.0584979 14.07826735 0.0501435 16.94921875 0.03710938 C18.77865478 0.04334727 20.60808499 0.05173861 22.4375 0.0625 C23.29283325 0.05956436 24.1481665 0.05662872 25.02941895 0.05360413 C29.76554837 0.1282918 32.81898859 0.50432612 36.71875 3.49609375 C34.0521081 4.8294147 32.55194697 4.16711408 29.71875 3.49609375 C29.71875 3.16609375 29.71875 2.83609375 29.71875 2.49609375 C24.70169279 2.42167369 19.68496028 2.36736467 14.66748047 2.33129883 C12.96234537 2.31625637 11.25724868 2.29581722 9.55224609 2.26977539 C7.09462988 2.23319091 4.63752731 2.21632202 2.1796875 2.203125 C1.04495499 2.17989922 1.04495499 2.17989922 -0.11270142 2.15620422 C-4.86927429 2.15470788 -8.21129253 2.76478469 -12.28125 5.49609375 C-15.06862913 13.09803682 -14.7207079 21.48365212 -14.28125 29.49609375 C-13.95125 29.82609375 -13.62125 30.15609375 -13.28125 30.49609375 C-13.24061168 32.1622649 -13.238529 33.8299747 -13.28125 35.49609375 C-12.62125 35.49609375 -11.96125 35.49609375 -11.28125 35.49609375 C-11.28125 36.48609375 -11.28125 37.47609375 -11.28125 38.49609375 C-5.24901797 38.6198377 0.78247285 38.71050188 6.81567383 38.77075195 C8.86723706 38.79587181 10.91871101 38.82997411 12.9699707 38.87329102 C15.92161091 38.93405377 18.8720665 38.96232867 21.82421875 38.984375 C22.73898483 39.01018143 23.65375092 39.03598785 24.59623718 39.06257629 C29.19288397 39.06459363 31.0523644 39.0455181 34.7121582 36.02807617 C35.3743335 35.19252197 36.03650879 34.35696777 36.71875 33.49609375 C37.37875 33.16609375 38.03875 32.83609375 38.71875 32.49609375 C38.413627 35.34390844 37.73283107 36.48091479 35.76171875 38.60571289 C31.5313026 41.23377067 28.104826 41.05476118 23.21875 40.9921875 C22.30544922 40.99364273 21.39214844 40.99509796 20.45117188 40.99659729 C18.52470705 40.99494101 16.59822863 40.98341016 14.671875 40.96264648 C11.72859301 40.93369059 8.78711324 40.94204351 5.84375 40.95507812 C3.96874127 40.94884024 2.09373822 40.94044892 0.21875 40.9296875 C-1.09706055 40.93409096 -1.09706055 40.93409096 -2.43945312 40.93858337 C-7.21251498 40.86514134 -10.39606411 40.57284512 -14.28125 37.49609375 C-18.38757388 32.89665237 -17.72518154 27.38330885 -17.65625 21.55859375 C-17.66785156 20.58212891 -17.67945313 19.60566406 -17.69140625 18.59960938 C-17.66426474 11.9273227 -17.02415507 7.37017837 -12.24951172 2.3671875 C-8.12098895 -0.23529634 -4.78585227 -0.06285756 0 0 Z " fill="#5870D7" transform="translate(268.28125,7.50390625)"/>
<path d="M0 0 C17.82 0 35.64 0 54 0 C54.495 0.99 54.495 0.99 55 2 C37.18 1.67 19.36 1.34 1 1 C1 14.2 1 27.4 1 41 C4.63 41 8.26 41 12 41 C12 36.05 12 31.1 12 26 C23.88 26 35.76 26 48 26 C48 26.33 48 26.66 48 27 C36.45 27 24.9 27 13 27 C13 31.95 13 36.9 13 42 C12 43 12 43 9.49609375 43.09765625 C8.48675781 43.08605469 7.47742188 43.07445312 6.4375 43.0625 C5.42558594 43.05347656 4.41367188 43.04445312 3.37109375 43.03515625 C2.19740234 43.01775391 2.19740234 43.01775391 1 43 C0.731875 42.360625 0.46375 41.72125 0.1875 41.0625 C-0.88667752 38.66868314 -0.88667752 38.66868314 -4 38 C-3.67 37.34 -3.34 36.68 -3 36 C-1.22965046 30.68895137 -1.64978335 25.40086659 -3 20 C-2.34 19.67 -1.68 19.34 -1 19 C-0.67 12.73 -0.34 6.46 0 0 Z " fill="#EFCEFD" transform="translate(70,7)"/>
<path d="M0 0 C11.88 0 23.76 0 36 0 C35.67 1.65 35.34 3.3 35 5 C23.45 5 11.9 5 0 5 C0 3.35 0 1.7 0 0 Z " fill="#F7E2FE" transform="translate(82,18)"/>
<path d="M0 0 C3.3 0 6.6 0 10 0 C10.1241194 4.58974462 10.21457876 9.17850086 10.2746582 13.76953125 C10.29971627 15.32927479 10.33377301 16.8889019 10.37719727 18.44824219 C10.43824193 20.69755843 10.46629426 22.9453156 10.48828125 25.1953125 C10.51408768 25.8861795 10.5398941 26.57704651 10.56648254 27.28884888 C10.56868247 31.13483987 9.97332848 33.48776239 7.59448242 36.42529297 C3.94674284 40.04522913 2.20260654 40.11381361 -2.86782837 40.11329651 C-3.66683563 40.10813522 -4.4658429 40.10297394 -5.2890625 40.09765625 C-6.51669815 40.09553383 -6.51669815 40.09553383 -7.76913452 40.09336853 C-10.38779325 40.0877629 -13.00636704 40.07520948 -15.625 40.0625 C-17.39843627 40.05748572 -19.17187387 40.05292269 -20.9453125 40.04882812 C-25.29690782 40.03779164 -29.6484395 40.02052325 -34 40 C-34 36.7 -34 33.4 -34 30 C-23.11 29.67 -12.22 29.34 -1 29 C-0.67 19.43 -0.34 9.86 0 0 Z M1 1 C1 10.57 1 20.14 1 30 C-1.37058594 30.06058594 -3.74117187 30.12117188 -6.18359375 30.18359375 C-8.47049291 30.24533898 -10.75734037 30.30874492 -13.04418945 30.37231445 C-14.637893 30.41572146 -16.2316448 30.45739219 -17.82543945 30.49731445 C-20.11163908 30.55487807 -22.39759449 30.61861149 -24.68359375 30.68359375 C-25.7586039 30.70866249 -25.7586039 30.70866249 -26.85533142 30.73423767 C-30.21527382 30.55018654 -30.21527382 30.55018654 -33 32 C-33.04092937 34.33297433 -33.04241723 36.66705225 -33 39 C-28.24946489 39.07435222 -23.49927113 39.12869691 -18.74829102 39.16479492 C-17.13332211 39.17984876 -15.51839387 39.20029648 -13.90356445 39.22631836 C-11.57753445 39.26285286 -9.25204659 39.27976015 -6.92578125 39.29296875 C-6.20787918 39.30845261 -5.48997711 39.32393646 -4.75032043 39.33988953 C-0.35518491 39.34135339 2.57885781 38.84866023 6 36 C6 35.01 6 34.02 6 33 C6.99 32.67 7.98 32.34 9 32 C9.02465622 27.74585377 9.04283899 23.49174502 9.05493164 19.23754883 C9.05997101 17.78929927 9.06680253 16.34105483 9.07543945 14.89282227 C9.08752247 12.81525412 9.09323211 10.73775303 9.09765625 8.66015625 C9.10289307 7.40855713 9.10812988 6.15695801 9.11352539 4.86743164 C9.32887035 2.10267706 9.32887035 2.10267706 8 1 C5.69 1 3.38 1 1 1 Z " fill="#5A5DC9" transform="translate(239,8)"/>
<path d="M0 0 C19.305 0.495 19.305 0.495 39 1 C39 2.65 39 4.3 39 6 C38 7 38 7 34.94897461 7.11352539 C33.60008729 7.11336634 32.25119386 7.10767612 30.90234375 7.09765625 C29.83905602 7.09553383 29.83905602 7.09553383 28.75428772 7.09336853 C26.48198288 7.08775443 24.20977525 7.07519963 21.9375 7.0625 C20.40039204 7.05748681 18.86328255 7.05292359 17.32617188 7.04882812 C13.55074358 7.03778042 9.77538829 7.02050641 6 7 C6 10.3 6 13.6 6 17 C16.89 17 27.78 17 39 17 C39 17.33 39 17.66 39 18 C27.78 18 16.56 18 5 18 C5 6 5 6 6 5 C8.29151417 4.91209025 10.58572524 4.89305962 12.87890625 4.90234375 C13.90889992 4.90446617 13.90889992 4.90446617 14.95970154 4.90663147 C17.16067801 4.91224521 19.36155409 4.92479993 21.5625 4.9375 C23.05143083 4.94251324 24.54036324 4.94707645 26.02929688 4.95117188 C29.68623075 4.96221907 33.34310558 4.97949287 37 5 C37 4.01 37 3.02 37 2 C24.79 2 12.58 2 0 2 C0 1.34 0 0.68 0 0 Z " fill="#C8E6FB" transform="translate(318,31)"/>
<path d="M0 0 C5.54436019 3.1257335 9.70387303 7.47224102 14.125 12 C14.82753906 12.7115625 15.53007812 13.423125 16.25390625 14.15625 C17.59352799 15.5135983 18.93121645 16.87285842 20.26660156 18.234375 C22.16552005 20.16859732 24.07837959 22.08833617 26 24 C25.01 24.495 25.01 24.495 24 25 C24 24.34 24 23.68 24 23 C23.42507812 22.75378906 22.85015625 22.50757812 22.2578125 22.25390625 C19.64360173 20.80206947 17.93663792 19.09712451 15.875 16.9375 C13.22095 14.08428067 13.22095 14.08428067 10 12 C10 11.34 10 10.68 10 10 C9.34 10 8.68 10 8 10 C8 9.34 8 8.68 8 8 C7.34 8 6.68 8 6 8 C6 7.34 6 6.68 6 6 C5.34 6 4.68 6 4 6 C3.62875 5.505 3.2575 5.01 2.875 4.5 C-0.17092388 2.06326089 -3.18776094 2.81251283 -7 3 C-7.33 3.66 -7.66 4.32 -8 5 C-8.66 5 -9.32 5 -10 5 C-11.1486567 8.71167362 -11.20542433 12.30336227 -11.31640625 16.171875 C-11.33718735 16.8542926 -11.35796844 17.53671021 -11.37937927 18.23980713 C-11.44452052 20.40977356 -11.50359404 22.57985624 -11.5625 24.75 C-11.60571897 26.22527221 -11.64933432 27.70053287 -11.69335938 29.17578125 C-11.80016518 32.78373166 -11.90153153 36.39181133 -12 40 C-9.36 40 -6.72 40 -4 40 C-4 31.42 -4 22.84 -4 14 C-3.67 14 -3.34 14 -3 14 C-3 22.91 -3 31.82 -3 41 C-6.3 41 -9.6 41 -13 41 C-13.1238948 36.10710835 -13.21447509 31.21513573 -13.2746582 26.32104492 C-13.29975347 24.65747161 -13.33383796 22.99400804 -13.37719727 21.33081055 C-13.4380746 18.93510847 -13.46625769 16.54086749 -13.48828125 14.14453125 C-13.51408768 13.4047554 -13.5398941 12.66497955 -13.56648254 11.90278625 C-13.56864778 7.88741955 -13.16802009 6.20580884 -10.59448242 3.0534668 C-6.81756634 0.06413385 -4.826758 -0.46411135 0 0 Z " fill="#754FCB" transform="translate(159,7)"/>
<path d="M0 0 C1.04085251 0.00007553 2.08170502 0.00015106 3.15409851 0.00022888 C4.27605118 0.00539017 5.39800385 0.01055145 6.55395508 0.01586914 C7.70390457 0.01728409 8.85385406 0.01869904 10.03865051 0.02015686 C13.71695541 0.02576111 17.39519978 0.03831435 21.07348633 0.05102539 C23.56502191 0.05603984 26.05655844 0.06060284 28.5480957 0.06469727 C34.66074929 0.07573192 40.77335754 0.09299944 46.88598633 0.11352539 C46.88598633 3.41352539 46.88598633 6.71352539 46.88598633 10.11352539 C31.37598633 10.11352539 15.86598633 10.11352539 -0.11401367 10.11352539 C-0.11401367 9.78352539 -0.11401367 9.45352539 -0.11401367 9.11352539 C22.16098633 8.61852539 22.16098633 8.61852539 44.88598633 8.11352539 C44.88598633 6.13352539 44.88598633 4.15352539 44.88598633 2.11352539 C37.99925827 2.03741337 31.11263884 1.98489943 24.22558594 1.94873047 C21.88309679 1.93365111 19.54063583 1.91318461 17.19824219 1.88720703 C13.82976316 1.85078718 10.46165768 1.83379026 7.09301758 1.82055664 C6.04700882 1.80507278 5.00100006 1.78958893 3.92329407 1.77363586 C-3.13821592 1.66742773 -3.13821592 1.66742773 -9.11401367 5.11352539 C-10.11660874 8.1213106 -10.41716009 10.65173186 -10.67651367 13.80102539 C-10.76030273 14.79489258 -10.8440918 15.78875977 -10.93041992 16.81274414 C-10.99100586 17.57200195 -11.0515918 18.33125977 -11.11401367 19.11352539 C-11.44401367 19.11352539 -11.77401367 19.11352539 -12.11401367 19.11352539 C-12.2222514 16.86458585 -12.29971012 14.61414964 -12.36401367 12.36352539 C-12.41041992 11.11055664 -12.45682617 9.85758789 -12.50463867 8.56665039 C-12.11401367 5.11352539 -12.11401367 5.11352539 -10.28588867 2.72290039 C-6.86321583 0.18667519 -4.13131688 -0.01000319 0 0 Z " fill="#9934C6" transform="translate(19.114013671875,7.886474609375)"/>
<path d="M0 0 C6.01394883 -0.0991017 12.02741915 -0.17157916 18.04199219 -0.21972656 C20.0866728 -0.2398042 22.13129627 -0.26707225 24.17578125 -0.30175781 C27.11993537 -0.35044519 30.06332834 -0.37300744 33.0078125 -0.390625 C33.9174173 -0.41127014 34.82702209 -0.43191528 35.76419067 -0.45318604 C41.49370574 -0.45519783 44.61450649 0.22957174 49 4 C51.45310153 8.01416614 51.57534005 12.40626932 51 17 C49.6449834 20.85109982 48.9737109 22.50182233 45.3125 24.375 C44.1678125 24.684375 44.1678125 24.684375 43 25 C42.505 24.01 42.505 24.01 42 23 C42.804375 22.525625 43.60875 22.05125 44.4375 21.5625 C46.84753488 20.23099846 46.84753488 20.23099846 48 19 C48.07271741 16.64686445 48.08370868 14.29166332 48.0625 11.9375 C48.05347656 10.64714844 48.04445312 9.35679688 48.03515625 8.02734375 C48.02355469 7.02832031 48.01195312 6.02929688 48 5 C45.05083694 3.31873519 42.89107005 2.73950121 39.50683594 2.68115234 C38.62622498 2.66128265 37.74561401 2.64141296 36.83831787 2.62094116 C35.89651672 2.60938995 34.95471558 2.59783875 33.984375 2.5859375 C33.01340881 2.56657135 32.04244263 2.5472052 31.04205322 2.5272522 C27.94479114 2.46753491 24.84749174 2.4211022 21.75 2.375 C19.64842141 2.33681302 17.54685835 2.29776086 15.4453125 2.2578125 C10.29700132 2.16183969 5.14861688 2.0777794 0 2 C0 1.34 0 0.68 0 0 Z " fill="#A73ECD" transform="translate(18,23)"/>
<path d="M0 0 C0 3.11227195 -0.45627049 5.94152152 -1 9 C-1.66 9 -2.32 9 -3 9 C-3 9.66 -3 10.32 -3 11 C-14.88 11 -26.76 11 -39 11 C-39 10.34 -39 9.68 -39 9 C-27.45 9 -15.9 9 -4 9 C-3.67 7.35 -3.34 5.7 -3 4 C-14.55 4 -26.1 4 -38 4 C-37.67 3.34 -37.34 2.68 -37 2 C-36.15816162 2.00523682 -35.31632324 2.01047363 -34.44897461 2.01586914 C-31.29744727 2.03300762 -28.14594386 2.04549696 -24.99438477 2.05493164 C-23.63565281 2.05993113 -22.27692615 2.06673291 -20.91821289 2.07543945 C-18.95461415 2.08769842 -16.99097459 2.09273487 -15.02734375 2.09765625 C-13.25991821 2.10551147 -13.25991821 2.10551147 -11.45678711 2.11352539 C-5.30009988 2.27192693 -5.30009988 2.27192693 0 0 Z " fill="#8D41D3" transform="translate(121,14)"/>
<path d="M0 0 C0.33 0 0.66 0 1 0 C1.33 8.91 1.66 17.82 2 27 C4.94412027 28.47206013 7.96285915 28.23807192 11.1953125 28.31640625 C11.90275604 28.33718735 12.61019958 28.35796844 13.33908081 28.37937927 C15.60095425 28.44481078 17.86294462 28.50372974 20.125 28.5625 C21.65756422 28.60569133 23.19011657 28.64930582 24.72265625 28.69335938 C28.48165073 28.80048555 32.24076292 28.9017709 36 29 C36 29.33 36 29.66 36 30 C25.11 30 14.22 30 3 30 C3 33.3 3 36.6 3 40 C13.89 40 24.78 40 36 40 C36 40.33 36 40.66 36 41 C24.78 41 13.56 41 2 41 C1.34 39.35 0.68 37.7 0 36 C-0.33 35.34 -0.66 34.68 -1 34 C-1.0165904 31.44358682 -0.97300981 28.91995478 -0.87890625 26.3671875 C-0.84348976 25.23943405 -0.84348976 25.23943405 -0.80735779 24.08889771 C-0.7306938 21.68407434 -0.64668156 19.27957082 -0.5625 16.875 C-0.50928203 15.24610948 -0.45654161 13.61720328 -0.40429688 11.98828125 C-0.27507502 7.9919844 -0.13926173 3.99595908 0 0 Z " fill="#C9C5F6" transform="translate(202,8)"/>
<path d="M0 0 C0.66 0 1.32 0 2 0 C2 13.2 2 26.4 2 40 C1.67 40 1.34 40 1 40 C0.67 38.35 0.34 36.7 0 35 C-0.33 35 -0.66 35 -1 35 C-1.13277344 34.10796875 -1.26554688 33.2159375 -1.40234375 32.296875 C-1.57894531 31.12640625 -1.75554687 29.9559375 -1.9375 28.75 C-2.11152344 27.58984375 -2.28554687 26.4296875 -2.46484375 25.234375 C-2.92570158 22.1264565 -2.92570158 22.1264565 -3.62890625 19.640625 C-3.81259766 18.82851563 -3.81259766 18.82851563 -4 18 C-3.67 17.67 -3.34 17.34 -3 17 C-2.7131854 13.73577665 -2.55112395 10.47135509 -2.37890625 7.19921875 C-2.03055617 4.25799491 -1.52254021 2.49647281 0 0 Z " fill="#EDDAFD" transform="translate(130,8)"/>
<path d="M0 0 C0.96945557 0.32145996 1.93891113 0.64291992 2.93774414 0.97412109 C7.29612131 2.21398482 11.48701523 2.34855254 15.99609375 2.4140625 C16.82963882 2.43342865 17.6631839 2.4527948 18.52198792 2.4727478 C21.16039084 2.53208993 23.79883848 2.57874573 26.4375 2.625 C28.23634619 2.66322164 30.03517489 2.70227575 31.83398438 2.7421875 C36.22251271 2.8377536 40.61112661 2.9219502 45 3 C45.1875 6.375 45.1875 6.375 45 10 C41.46435537 12.35709642 39.77974745 12.30009735 35.58203125 12.4140625 C33.70161133 12.47207031 33.70161133 12.47207031 31.78320312 12.53125 C30.47287109 12.5621875 29.16253906 12.593125 27.8125 12.625 C26.4771884 12.66319338 25.14190108 12.70224591 23.80664062 12.7421875 C20.53790112 12.83659153 17.26916936 12.92217017 14 13 C13.67 14.98 13.34 16.96 13 19 C12.34 19 11.68 19 11 19 C11 16.36 11 13.72 11 11 C11.83249268 10.97494385 12.66498535 10.9498877 13.52270508 10.92407227 C16.61462833 10.82887306 19.70638852 10.72964328 22.7980957 10.62768555 C24.79303319 10.56312994 26.78811929 10.5032217 28.78320312 10.44335938 C30.66362305 10.38051758 30.66362305 10.38051758 32.58203125 10.31640625 C33.73936768 10.27974854 34.8967041 10.24309082 36.08911133 10.20532227 C39.0643446 10.11671491 39.0643446 10.11671491 42 9 C42.33 7.35 42.66 5.7 43 4 C41.91058105 4.01571045 40.82116211 4.0314209 39.69873047 4.04760742 C35.63972425 4.10208978 31.5807501 4.13641639 27.52148438 4.16479492 C25.76784827 4.17983995 24.01424953 4.20028104 22.26074219 4.22631836 C19.73362991 4.26289121 17.20701704 4.2797692 14.6796875 4.29296875 C13.51214432 4.31619453 13.51214432 4.31619453 12.3210144 4.33988953 C7.4585311 4.34137782 4.27235786 3.57589309 0 1 C0 0.67 0 0.34 0 0 Z " fill="#5193E6" transform="translate(314,28)"/>
<path d="M0 0 C13.86 0 27.72 0 42 0 C41.67 1.65 41.34 3.3 41 5 C25.16 5 9.32 5 -7 5 C-7 4.67 -7 4.34 -7 4 C8.51 4 24.02 4 40 4 C40 3.34 40 2.68 40 2 C20.2 1.505 20.2 1.505 0 1 C0 0.67 0 0.34 0 0 Z " fill="#EFBBFB" transform="translate(16,33)"/>
<path d="M0 0 C6.90498319 -0.10137822 13.80977465 -0.1714562 20.71533203 -0.21972656 C23.06468884 -0.23984814 25.41399554 -0.26714851 27.76318359 -0.30175781 C31.13912315 -0.3502504 34.51440086 -0.37296357 37.890625 -0.390625 C38.94179504 -0.41127014 39.99296509 -0.43191528 41.07598877 -0.45318604 C48.34295932 -0.45542474 48.34295932 -0.45542474 51.66772461 1.84912109 C53.42404712 4.6845987 53.43487578 6.55819429 53.3125 9.875 C53.27769531 10.92945313 53.24289063 11.98390625 53.20703125 13.0703125 C52.99308019 16.09792179 52.65893286 19.03480212 52 22 C51.34 22 50.68 22 50 22 C49.67 22.66 49.34 23.32 49 24 C48.505 22.515 48.505 22.515 48 21 C48.66 21 49.32 21 50 21 C49.979375 20.195625 49.95875 19.39125 49.9375 18.5625 C50 16 50 16 51 15 C51.23192865 13.48530552 51.41215238 11.96245438 51.5625 10.4375 C51.64628906 9.61121094 51.73007813 8.78492188 51.81640625 7.93359375 C51.87699219 7.29550781 51.93757813 6.65742188 52 6 C51.01 5.67 50.02 5.34 49 5 C49.33 4.01 49.66 3.02 50 2 C25.25 1.505 25.25 1.505 0 1 C0 0.67 0 0.34 0 0 Z " fill="#8D39EE" transform="translate(73,9)"/>
<path d="M0 0 C0.33 0 0.66 0 1 0 C1.33 1.65 1.66 3.3 2 5 C2.66 5 3.32 5 4 5 C3.83701416 5.70664795 3.67402832 6.4132959 3.50610352 7.14135742 C2.98646586 10.07644539 2.88641651 12.75988693 2.90234375 15.73828125 C2.90556641 16.80498047 2.90878906 17.87167969 2.91210938 18.97070312 C2.92048828 20.07349609 2.92886719 21.17628906 2.9375 22.3125 C2.94201172 23.43462891 2.94652344 24.55675781 2.95117188 25.71289062 C2.96292687 28.4753151 2.97935923 31.23762998 3 34 C2.34 34 1.68 34 1 34 C-0.63676257 35.9600281 -0.63676257 35.9600281 -2 38 C-2.66 37.67 -3.32 37.34 -4 37 C-3.5155542 36.49694336 -3.0311084 35.99388672 -2.53198242 35.47558594 C-0.48348938 32.16535177 -0.52272901 29.170703 -0.48828125 25.390625 C-0.46135445 24.30041046 -0.46135445 24.30041046 -0.43388367 23.18817139 C-0.37986759 20.87550593 -0.3459144 18.56304579 -0.3125 16.25 C-0.27931907 14.6783569 -0.24482868 13.10674086 -0.20898438 11.53515625 C-0.12414672 7.69025254 -0.05729494 3.84540878 0 0 Z " fill="#E9F2FE" transform="translate(249,8)"/>
<path d="M0 0 C0.80448578 -0.00953201 1.60897156 -0.01906403 2.43783569 -0.02888489 C3.30349152 -0.02797348 4.16914734 -0.02706207 5.06103516 -0.02612305 C5.95496979 -0.03040817 6.84890442 -0.0346933 7.76992798 -0.03910828 C9.66122592 -0.04485136 11.55254596 -0.045352 13.44384766 -0.04101562 C16.33225412 -0.03786128 19.21963077 -0.06129524 22.10791016 -0.08666992 C23.94645053 -0.08894353 25.78499366 -0.08964612 27.62353516 -0.08862305 C28.48514252 -0.09783279 29.34674988 -0.10704254 30.23446655 -0.11653137 C34.99779776 -0.07993769 38.05628331 0.25238627 41.97509766 3.2746582 C39.30845575 4.60797916 37.80829462 3.94567854 34.97509766 3.2746582 C34.97509766 2.9446582 34.97509766 2.6146582 34.97509766 2.2746582 C29.95804045 2.20023814 24.94130793 2.14592912 19.92382812 2.10986328 C18.21869303 2.09482083 16.51359633 2.07438167 14.80859375 2.04833984 C12.35097754 2.01175536 9.89387497 1.99488648 7.43603516 1.98168945 C6.30130264 1.95846367 6.30130264 1.95846367 5.14364624 1.93476868 C0.36366951 1.93326497 -2.89205078 2.61749193 -7.02490234 5.2746582 C-8.01490234 6.7596582 -8.01490234 6.7596582 -9.02490234 8.2746582 C-9.68490234 7.9446582 -10.34490234 7.6146582 -11.02490234 7.2746582 C-5.50056058 0.03586555 -5.50056058 0.03586555 0 0 Z " fill="#4672D0" transform="translate(263.02490234375,7.725341796875)"/>
<path d="M0 0 C1.13695312 0.64743164 2.27390625 1.29486328 3.4453125 1.96191406 C8.0036833 4.23234107 11.84244851 4.6013244 16.875 4.609375 C18.08990112 4.63417938 18.08990112 4.63417938 19.3293457 4.65948486 C21.88631029 4.70761175 24.44268183 4.72925586 27 4.75 C28.74612303 4.7781894 30.49221884 4.80812095 32.23828125 4.83984375 C36.49213857 4.91336034 40.74567348 4.9631495 45 5 C45 5.33 45 5.66 45 6 C39.71642089 6.07448116 34.43315137 6.12875795 29.14916992 6.16479492 C27.35386833 6.17982716 25.55860312 6.20025857 23.76342773 6.22631836 C21.17422474 6.26294786 18.58550972 6.2797821 15.99609375 6.29296875 C14.80348183 6.31619453 14.80348183 6.31619453 13.58677673 6.33988953 C8.31447527 6.34146092 4.71506276 5.37810321 0 3 C0 2.01 0 1.02 0 0 Z " fill="#FDE5FE" transform="translate(8,29)"/>
<path d="M0 0 C2.84148564 1.42074282 4.65874886 2.4312481 6.3125 5.1875 C7.57760071 10.36291201 7.559253 14.4105441 5.8125 19.375 C3.76602961 22.33885367 2.42805969 23.07349738 -1 24 C-1.33 23.34 -1.66 22.68 -2 22 C-1.195625 21.525625 -0.39125 21.05125 0.4375 20.5625 C2.84753488 19.23099846 2.84753488 19.23099846 4 18 C4.07271741 15.64686445 4.08370868 13.29166332 4.0625 10.9375 C4.05347656 9.64714844 4.04445313 8.35679688 4.03515625 7.02734375 C4.02355469 6.02832031 4.01195313 5.02929688 4 4 C2.68 3.34 1.36 2.68 0 2 C0 1.34 0 0.68 0 0 Z " fill="#A249CF" transform="translate(62,24)"/>
<path d="M0 0 C3.84612364 1.56693926 6.12412231 4.05564903 9 7 C9.99 7.804375 10.98 8.60875 12 9.4375 C15.12046029 12.10289316 17.46342121 14.79197389 20 18 C19.67 18.66 19.34 19.32 19 20 C11.26498192 13.51256548 11.26498192 13.51256548 8.3125 9.8125 C6.10297316 6.92540735 6.10297316 6.92540735 3.25 4.8125 C1 3 1 3 0 0 Z " fill="#7C5BD3" transform="translate(157,18)"/>
<path d="M0 0 C2.875 1.5 2.875 1.5 5 3 C4.01 3.495 4.01 3.495 3 4 C2.34 3.67 1.68 3.34 1 3 C-0.37342831 2.9310528 -1.75002102 2.91532292 -3.125 2.9375 C-4.40375 2.958125 -5.6825 2.97875 -7 3 C-7.33 3.66 -7.66 4.32 -8 5 C-8.66 5 -9.32 5 -10 5 C-10.66 6.65 -11.32 8.3 -12 10 C-12.8125 8.3125 -12.8125 8.3125 -13 6 C-8.82415198 1.14698743 -6.39663848 -0.50169714 0 0 Z " fill="#8667D0" transform="translate(159,7)"/>
<path d="M0 0 C0.33 0 0.66 0 1 0 C1.11589162 4.27060618 1.18714802 8.54080984 1.25 12.8125 C1.28351563 14.02744141 1.31703125 15.24238281 1.3515625 16.49414062 C1.36445313 17.65751953 1.37734375 18.82089844 1.390625 20.01953125 C1.41157227 21.09307861 1.43251953 22.16662598 1.45410156 23.27270508 C1 26 1 26 -1.02441406 27.8737793 C-1.67635742 28.24543213 -2.32830078 28.61708496 -3 29 C-3.66 28.67 -4.32 28.34 -5 28 C-4.525625 27.566875 -4.05125 27.13375 -3.5625 26.6875 C-0.83839894 23.74547086 -0.83855711 20.72434004 -0.68359375 16.89453125 C-0.64169922 15.91162109 -0.59980469 14.92871094 -0.55664062 13.91601562 C-0.51732422 12.89185547 -0.47800781 11.86769531 -0.4375 10.8125 C-0.39431641 9.77673828 -0.35113281 8.74097656 -0.30664062 7.67382812 C-0.20055634 5.1160181 -0.09849854 2.55811155 0 0 Z " fill="#AFCEFC" transform="translate(308,18)"/>
<path d="M0 0 C2.31 0 4.62 0 7 0 C6.360625 0.268125 5.72125 0.53625 5.0625 0.8125 C2.66868314 1.88667752 2.66868314 1.88667752 2 5 C1.85164052 6.77166975 1.75229982 8.54767612 1.68359375 10.32421875 C1.64169922 11.35224609 1.59980469 12.38027344 1.55664062 13.43945312 C1.51732422 14.51130859 1.47800781 15.58316406 1.4375 16.6875 C1.39431641 17.77095703 1.35113281 18.85441406 1.30664062 19.97070312 C1.20053162 22.64700791 1.09847639 25.32340526 1 28 C0.67 28 0.34 28 0 28 C0 18.76 0 9.52 0 0 Z " fill="#5062ED" transform="translate(240,9)"/>
<path d="M0 0 C0.33 0 0.66 0 1 0 C1.02505615 0.68102783 1.0501123 1.36205566 1.07592773 2.0637207 C1.19190952 5.14683755 1.31462616 8.22965046 1.4375 11.3125 C1.47681641 12.38435547 1.51613281 13.45621094 1.55664062 14.56054688 C1.59853516 15.58857422 1.64042969 16.61660156 1.68359375 17.67578125 C1.72025146 18.62364502 1.75690918 19.57150879 1.79467773 20.5480957 C1.91430187 23.136171 1.91430187 23.136171 3 26 C2.5625 28.6875 2.5625 28.6875 2 31 C1.34 31 0.68 31 0 31 C0 20.77 0 10.54 0 0 Z " fill="#8042EB" transform="translate(147,16)"/>
<path d="M0 0 C0.33 0 0.66 0 1 0 C1.33 1.65 1.66 3.3 2 5 C2.66 5 3.32 5 4 5 C3.67 6.65 3.34 8.3 3 10 C2.67 10 2.34 10 2 10 C1.67 16.6 1.34 23.2 1 30 C0.67 30 0.34 30 0 30 C0 20.1 0 10.2 0 0 Z " fill="#CDD9FE" transform="translate(249,8)"/>
<path d="M0 0 C-1.7578125 0.65104167 -3.515625 1.30208333 -5.2734375 1.953125 C-7.57289944 3.34736889 -8.0898349 4.4795428 -9 7 C-9.45275278 9.81496741 -9.45275278 9.81496741 -9.625 12.75 C-9.69976562 13.73484375 -9.77453125 14.7196875 -9.8515625 15.734375 C-9.92503906 16.85585938 -9.92503906 16.85585938 -10 18 C-10.33 18 -10.66 18 -11 18 C-11.10823773 15.75106046 -11.18569645 13.50062425 -11.25 11.25 C-11.29640625 9.99703125 -11.3428125 8.7440625 -11.390625 7.453125 C-11 4 -11 4 -9.171875 1.609375 C-5.82492671 -0.87073776 -3.87921487 -1.20389427 0 0 Z " fill="#AB3AC8" transform="translate(18,9)"/>
<path d="M0 0 C0.66 0 1.32 0 2 0 C4.62451617 2.62451617 4.5832868 4.4877828 5.125 8.125 C5.29257812 9.22070312 5.46015625 10.31640625 5.6328125 11.4453125 C5.75398438 12.28835937 5.87515625 13.13140625 6 14 C5.34 14 4.68 14 4 14 C3.67 14.66 3.34 15.32 3 16 C2.95101563 15.34773438 2.90203125 14.69546875 2.8515625 14.0234375 C2.42757771 9.06720147 1.84334427 4.66980549 0 0 Z " fill="#DCF3FD" transform="translate(306,12)"/>
<path d="M0 0 C1.32 0 2.64 0 4 0 C4 0.66 4 1.32 4 2 C7.3 1.67 10.6 1.34 14 1 C11 4 11 4 8.125 4.4375 C4.35124488 3.90917428 2.73808654 2.57702263 0 0 Z " fill="#7E68D3" transform="translate(184,45)"/>
<path d="M0 0 C3.63 0 7.26 0 11 0 C11 0.33 11 0.66 11 1 C8.36 1.33 5.72 1.66 3 2 C2.67 3.98 2.34 5.96 2 8 C1.34 8 0.68 8 0 8 C0 5.36 0 2.72 0 0 Z " fill="#2A7AF0" transform="translate(325,39)"/>
<path d="M0 0 C0.33 0.99 0.66 1.98 1 3 C-2.91176471 8.58823529 -2.91176471 8.58823529 -6.3125 9.875 C-6.869375 9.91625 -7.42625 9.9575 -8 10 C-7.67 9.01 -7.34 8.02 -7 7 C-6.01 6.67 -5.02 6.34 -4 6 C-3.67 5.01 -3.34 4.02 -3 3 C-1.4375 1.3125 -1.4375 1.3125 0 0 Z " fill="#646BD2" transform="translate(248,38)"/>
<path d="M0 0 C0.66 0 1.32 0 2 0 C2.66 0.66 3.32 1.32 4 2 C3.9765625 4.8203125 3.9765625 4.8203125 3.625 8.125 C3.51414063 9.22070312 3.40328125 10.31640625 3.2890625 11.4453125 C3.19367188 12.28835937 3.09828125 13.13140625 3 14 C2.67 14 2.34 14 2 14 C1.34 9.38 0.68 4.76 0 0 Z " fill="#EFD6FD" transform="translate(127,29)"/>
<path d="M0 0 C0.66 0 1.32 0 2 0 C2.04241723 2.33294775 2.04092937 4.66702567 2 7 C1 8 1 8 -1.5625 8.0625 C-2.366875 8.041875 -3.17125 8.02125 -4 8 C-3.01 7.34 -2.02 6.68 -1 6 C-0.26656572 2.93443402 -0.26656572 2.93443402 0 0 Z " fill="#2984D9" transform="translate(357,31)"/>
<path d="M0 0 C0.99 0.33 1.98 0.66 3 1 C1 3 1 3 -1 3.9375 C-3.32131409 4.96786859 -3.32131409 4.96786859 -5 8 C-5.66 7.67 -6.32 7.34 -7 7 C-4.78071806 4.09197539 -3.07030857 2.04687238 0 0 Z " fill="#5D76D1" transform="translate(259,8)"/>
<path d="M0 0 C0.33 0 0.66 0 1 0 C1.25 2.8125 1.25 2.8125 1 6 C-1 7.875 -1 7.875 -3 9 C-3.66 8.67 -4.32 8.34 -5 8 C-4.54625 7.608125 -4.0925 7.21625 -3.625 6.8125 C-1.72357081 4.69167513 -0.93795972 2.66957765 0 0 Z " fill="#D0E5FB" transform="translate(308,38)"/>
<path d="M0 0 C0.33 0 0.66 0 1 0 C1.3125 2.6875 1.3125 2.6875 1 6 C-1.5 8.875 -1.5 8.875 -4 11 C-3.21681311 7.08406554 -1.60820142 3.63593365 0 0 Z " fill="#3C8BD4" transform="translate(366,36)"/>
<path d="M0 0 C0.99 0 1.98 0 3 0 C3 0.66 3 1.32 3 2 C2.01 2.495 2.01 2.495 1 3 C0.34444881 5.52733235 0.34444881 5.52733235 0 8 C-0.66 8 -1.32 8 -2 8 C-1.125 1.125 -1.125 1.125 0 0 Z " fill="#BA28E3" transform="translate(18,15)"/>
<path d="M0 0 C2.4375 0.8125 2.4375 0.8125 5 2 C5.33 2.99 5.66 3.98 6 5 C6.66 5.33 7.32 5.66 8 6 C5 6 5 6 3.61328125 4.6875 C2.40885417 3.125 1.20442708 1.5625 0 0 Z " fill="#7C61D6" transform="translate(177,38)"/>
</svg>
